<svg
  width="32"
  height="32"
  viewBox="0 0 32 32"
  fill="none"
  xmlns="http://www.w3.org/2000/svg"
>
  <rect width="32" height="32" rx="8" fill="#4F46E5" />
  <path
    d="M11.5 6C9 6 7 8 7 10.5C7 13 9 15 11.5 15C13 15 14.4 14.2 15.2 13H17V15H20V13H22V10H15.2C14.4 8.8 13 8 11.5 8C10.1 8 9 9.1 9 10.5C9 11.9 10.1 13 11.5 13C12.2 13 12.9 12.6 13.2 12H23V16C23 20.4 19.4 24 15 24C10.6 24 7 20.4 7 16V15.2C6.4 14.8 5.8 14.3 5.4 13.7C5.1 14.4 5 15.2 5 16C5 21.5 9.5 26 15 26C20.5 26 25 21.5 25 16V10H15.2C14.4 8.8 13 8 11.5 8V10.5C11.5 10.8 11.3 11 11 11C10.7 11 10.5 10.8 10.5 10.5C10.5 10.2 10.7 10 11 10C11.4 10 11.8 10.1 12 10.4V8.3C11.8 8.1 11.7 8 11.5 8"
    fill="white"
    opacity="0.9"
  />
  <path
    d="M11.5 10C11.2 10 11 10.2 11 10.5C11 10.8 11.2 11 11.5 11C11.8 11 12 10.8 12 10.5C12 10.2 11.8 10 11.5 10Z"
    fill="white"
  />
</svg>
