<svg
  width="32"
  height="32"
  viewBox="0 0 32 32"
  fill="none"
  xmlns="http://www.w3.org/2000/svg"
>
  <rect width="32" height="32" rx="8" fill="#4F46E5" />

  <!-- Fork -->
  <path
    d="M10 6V15C10 16.1 9.1 17 8 17H7V23C7 23.5523 7.44772 24 8 24C8.55228 24 9 23.5523 9 23V17C7.9 17 7 16.1 7 15V11H8V15C8 15.5523 8.44772 16 9 16C9.55228 16 10 15.5523 10 15V6C10 5.44772 9.55228 5 9 5C8.44772 5 8 5.44772 8 6V9H7V6C7 5.44772 6.55228 5 6 5C5.44772 5 5 5.44772 5 6V15C5 16.1 4.1 17 3 17V23C3 23.5523 3.44772 24 4 24C4.55228 24 5 23.5523 5 23V17H4C3.39 17 2.84 16.68 2.5 16.2C2.82 13.27 5.37 11 8.5 11"
    fill="white"
    opacity="0.9"
  />

  <!-- Spoon -->
  <path
    d="M17.5 14H16.71C16.33 12.26 14.77 11 13 11C11.9391 11 10.9217 11.4214 10.1716 12.1716C9.42143 12.9217 9 13.9391 9 15V23C9 23.5304 9.21071 24.0391 9.58579 24.4142C9.96086 24.7893 10.4696 25 11 25H17C17.5304 25 18.0391 24.7893 18.4142 24.4142C18.7893 24.0391 19 23.5304 19 23V16.5C19 15.837 18.7366 15.2011 18.2678 14.7322C17.7989 14.2634 17.163 14 16.5 14"
    fill="white"
    opacity="0.8"
  />

  <!-- Steam/Circles -->
  <path
    d="M21 11C22.1046 11 23 10.1046 23 9C23 7.89543 22.1046 7 21 7C19.8954 7 19 7.89543 19 9C19 10.1046 19.8954 11 21 11Z"
    fill="white"
    opacity="0.7"
  />
  <path
    d="M24 13C25.1046 13 26 12.1046 26 11C26 9.89543 25.1046 9 24 9C22.8954 9 22 9.89543 22 11C22 12.1046 22.8954 13 24 13Z"
    fill="white"
    opacity="0.7"
  />
</svg>
