<svg
  width="32"
  height="32"
  viewBox="0 0 32 32"
  fill="none"
  xmlns="http://www.w3.org/2000/svg"
>
  <rect width="32" height="32" rx="8" fill="#4F46E5" />

  <!-- Chef Hat -->
  <path
    d="M9 8C9 6.34 10.34 5 12 5C12.73 5 13.41 5.19 14 5.5C14.59 5.19 15.27 5 16 5C17.66 5 19 6.34 19 8C19 9.13 18.36 10.16 17.5 10.7V12.5H10.5V10.7C9.64 10.15 9 9.13 9 8Z"
    fill="white"
    opacity="0.95"
  />

  <!-- Plate - outer circle -->
  <path
    d="M24 18C24 15.79 22.21 14 20 14H12C9.79 14 8 15.79 8 18C8 20.21 9.79 22 12 22H20C22.21 22 24 20.21 24 18Z"
    fill="white"
    opacity="0.8"
    stroke="white"
    strokeWidth="1"
  />

  <!-- Plate rim -->
  <path
    d="M22 18C22 19.66 20.66 21 19 21H13C11.34 21 10 19.66 10 18C10 16.34 11.34 15 13 15H19C20.66 15 22 16.34 22 18Z"
    fill="white"
    opacity="0.95"
  />

  <!-- Food items -->
  <path
    d="M18 17C18.5523 17 19 17.4477 19 18C19 18.5523 18.5523 19 18 19C17.4477 19 17 18.5523 17 18C17 17.4477 17.4477 17 18 17Z"
    fill="white"
    opacity="0.9"
  />
  <path
    d="M14 16C14.5523 16 15 16.4477 15 17C15 17.5523 14.5523 18 14 18C13.4477 18 13 17.5523 13 17C13 16.4477 13.4477 16 14 16Z"
    fill="white"
    opacity="0.75"
  />
  <path
    d="M12 18C12.5523 18 13 18.4477 13 19C13 19.5523 12.5523 20 12 20C11.4477 20 11 19.5523 11 19C11 18.4477 11.4477 18 12 18Z"
    fill="white"
    opacity="0.85"
  />
  <path
    d="M16 19C16.5523 19 17 19.4477 17 20C17 20.5523 16.5523 21 16 21C15.4477 21 15 20.5523 15 20C15 19.4477 15.4477 19 16 19Z"
    fill="white"
    opacity="0.8"
  />

  <!-- Plate base/stand -->
  <path
    d="M18 22H14C14 22 13 23 16 24C19 23 18 22 18 22Z"
    fill="white"
    opacity="0.7"
  />

  <!-- Steam -->
  <path
    d="M13 11C13 11 12.5 10 13.5 9.5"
    stroke="white"
    strokeWidth="0.75"
    strokeLinecap="round"
  />
  <path
    d="M16 11C16 11 15.5 9.5 16.5 9"
    stroke="white"
    strokeWidth="0.75"
    strokeLinecap="round"
  />
  <path
    d="M19 11C19 11 18.5 10 19.5 9.5"
    stroke="white"
    strokeWidth="0.75"
    strokeLinecap="round"
  />
</svg>
